<svg xmlns="http://www.w3.org/2000/svg" viewBox="0 0 791.02 791.03" role="img" aria-label="ACSIS">
  <path
    d="m742.24,377.4c-4.27-82.27-37.73-163.33-100.4-226.46-63.31-63.76-145.13-97.83-228.22-102.14V0h-36.23v48.8c-53.87,2.79-107.23,18.12-155.38,45.96-25.37,14.66-49.28,32.81-71.08,54.43-20.62,20.49-38.14,42.88-52.52,66.65-30.15,49.72-46.7,105.35-49.63,161.57H0v36.23h48.79c4.27,82.26,37.73,163.32,100.4,226.45,63.31,63.77,145.12,97.83,228.2,102.14v48.8h36.23v-258.53c6.8-.9,13.55-2.3,20.18-4.21-6.72-13.77-13.45-27.55-20.18-41.32-3.7-7.58-7.4-15.15-11.1-22.73-8.4.85-16.93.17-25.13-2.06-11.32-3.07-22.01-9.07-30.89-18-8.74-8.81-14.63-19.37-17.66-30.54-3.21-11.85-3.21-24.38.01-36.23,2.92-10.79,8.51-21.02,16.77-29.64.41-.42.82-.85,1.24-1.27.28-.27.55-.54.83-.81,8.63-8.3,18.88-13.91,29.7-16.84,11.85-3.22,24.38-3.23,36.23-.02,11.33,3.07,22.03,9.07,30.91,18.01,8.75,8.82,14.64,19.39,17.67,30.56,2.54,9.39,3.06,19.2,1.57,28.75h.01c4.79,2.5,9.58,5,14.37,7.49,16.18,8.43,32.37,16.86,48.55,25.28,2.73-8.26,4.66-16.72,5.78-25.28h258.54v-36.24h-48.78ZM149.86,242.66c11.62-18.65,25.57-36.26,41.84-52.42,17.15-17.03,35.92-31.49,55.78-43.34,40.12-23.96,84.75-37.33,129.91-40.13v44.42c-38.48,2.83-76.42,14.73-110.38,35.7-15.65,9.67-30.45,21.27-44.08,34.79-12.94,12.86-24.15,26.79-33.63,41.5-22.48,34.92-35.19,74.28-38.12,114.23h-44.44c2.94-47,17.32-93.42,43.12-134.75Zm40.39,356.67c-51.48-51.84-79.29-118.18-83.5-185.69h44.42c4.15,56.22,27.64,111.29,70.51,154.47,43.32,43.63,98.92,67.56,155.71,71.75v44.42c-68.19-4.27-135.16-32.6-187.14-84.95Zm107.23-106.48c22.42,22.58,50.67,35.8,79.91,39.64v45.91c-41-4.05-80.9-21.87-112.24-53.43-31.01-31.22-48.5-70.75-52.51-111.33h45.9c3.79,28.92,16.77,56.89,38.94,79.21Zm16.85-209.12c-5.64,4.11-11.03,8.69-16.14,13.76-4.91,4.88-9.39,10.04-13.41,15.43-14.48,19.35-23.24,41.61-26.25,64.49h-45.88c2.96-30.18,13.4-59.77,31.28-85.78,6.43-9.33,13.81-18.21,22.14-26.49,8.73-8.68,18.14-16.3,28.01-22.86,25.42-16.89,54.1-26.76,83.31-29.63v45.89c-22.31,2.94-44.05,11.34-63.06,25.19Zm218.15,93.67c-3.79-28.92-16.77-56.89-38.94-79.21-22.42-22.58-50.67-35.8-79.92-39.64v-45.91c41.02,4.05,80.92,21.87,112.26,53.43,31,31.23,48.49,70.75,52.5,111.33h-45.9Zm107.38,0c-4.15-56.22-27.65-111.29-70.51-154.47-43.33-43.64-98.94-67.56-155.73-71.75v-44.42c68.21,4.25,135.18,32.58,187.16,84.95,51.48,51.82,79.29,118.17,83.5,185.69h-44.42Z"
    fill="#16a34a"
  />
  <g fill="#ffffff">
    <path d="m661.63,509.21c-14.23,33.3-35,64.48-62.3,91.58-29.1,28.9-62.79,50.34-98.68,64.33,8.5,17.38,16.99,34.76,25.47,52.14,41.41-16.8,80.24-41.94,113.97-75.42,31.65-31.42,55.98-67.4,72.99-105.83-17.14-8.94-34.29-17.87-51.44-26.8Z" />
    <path d="m526.71,438.93h0c-20.97-10.92-41.95-21.86-62.92-32.77h0c3.27-20.94-3.14-43.11-19.24-59.32-26.62-26.81-69.69-27.23-96.84-1.15-.29.27-.56.54-.83.81-.42.41-.83.84-1.24,1.27-25.85,26.99-25.6,69.73.89,96.4,15.29,15.4,36.01,22.1,56.02,20.06,10.43,21.35,20.86,42.7,31.28,64.05,21.59-6.22,41.97-17.79,59.05-34.75,15.97-15.85,27.25-34.63,33.86-54.61Z" />
    <path d="m622.18,488.65c-18.22-9.48-36.42-18.96-54.62-28.45-9.01,23.97-23.21,46.44-42.59,65.68-20.7,20.55-45.04,35.17-70.92,43.85,9.03,18.47,18.05,36.94,27.07,55.4,31.68-11.8,61.42-30.4,87-55.79,23.97-23.8,41.99-51.31,54.06-80.69Z" />
  </g>
</svg>
